<mxfile host="app.diagrams.net" agent="Mozilla/5.0 (Windows NT 10.0; Win64; x64) AppleWebKit/537.36 (KHTML, like Gecko) Chrome/132.0.0.0 Safari/537.36" version="26.0.6">
  <diagram name="Page-1" id="-XGX5pjnHfDKUZN1NHOl">
    <mxGraphModel dx="934" dy="812" grid="1" gridSize="10" guides="1" tooltips="1" connect="1" arrows="1" fold="1" page="1" pageScale="1" pageWidth="827" pageHeight="1169" math="0" shadow="0">
      <root>
        <mxCell id="0" />
        <mxCell id="1" parent="0" />
        <mxCell id="5EitfYJ-op9geUsSmFYW-2" value="" style="rounded=0;whiteSpace=wrap;html=1;" vertex="1" parent="1">
          <mxGeometry x="40" y="80" width="240" height="840" as="geometry" />
        </mxCell>
        <mxCell id="5EitfYJ-op9geUsSmFYW-3" value="" style="rounded=0;whiteSpace=wrap;html=1;" vertex="1" parent="1">
          <mxGeometry x="280" y="80" width="240" height="840" as="geometry" />
        </mxCell>
        <mxCell id="5EitfYJ-op9geUsSmFYW-5" value="PENGUNJUNG" style="rounded=0;whiteSpace=wrap;html=1;" vertex="1" parent="1">
          <mxGeometry x="40" y="80" width="240" height="40" as="geometry" />
        </mxCell>
        <mxCell id="5EitfYJ-op9geUsSmFYW-6" value="SISTEM PERPUSTAKAAN" style="rounded=0;whiteSpace=wrap;html=1;" vertex="1" parent="1">
          <mxGeometry x="280" y="80" width="240" height="40" as="geometry" />
        </mxCell>
        <mxCell id="5EitfYJ-op9geUsSmFYW-8" value="" style="ellipse;whiteSpace=wrap;html=1;aspect=fixed;fillColor=#000000;" vertex="1" parent="1">
          <mxGeometry x="140" y="130" width="40" height="40" as="geometry" />
        </mxCell>
        <mxCell id="5EitfYJ-op9geUsSmFYW-10" value="Mencari Buku" style="rounded=1;whiteSpace=wrap;html=1;" vertex="1" parent="1">
          <mxGeometry x="100" y="210" width="120" height="30" as="geometry" />
        </mxCell>
        <mxCell id="5EitfYJ-op9geUsSmFYW-12" value="Melakukan Peminjaman" style="rounded=1;whiteSpace=wrap;html=1;" vertex="1" parent="1">
          <mxGeometry x="90" y="290" width="140" height="30" as="geometry" />
        </mxCell>
        <mxCell id="5EitfYJ-op9geUsSmFYW-13" value="" style="endArrow=classic;html=1;rounded=0;exitX=0.5;exitY=1;exitDx=0;exitDy=0;" edge="1" parent="1" source="5EitfYJ-op9geUsSmFYW-8" target="5EitfYJ-op9geUsSmFYW-10">
          <mxGeometry width="50" height="50" relative="1" as="geometry">
            <mxPoint x="380" y="380" as="sourcePoint" />
            <mxPoint x="430" y="330" as="targetPoint" />
          </mxGeometry>
        </mxCell>
        <mxCell id="5EitfYJ-op9geUsSmFYW-14" value="" style="endArrow=classic;html=1;rounded=0;exitX=0.5;exitY=1;exitDx=0;exitDy=0;entryX=0.5;entryY=0;entryDx=0;entryDy=0;" edge="1" parent="1" target="5EitfYJ-op9geUsSmFYW-12">
          <mxGeometry width="50" height="50" relative="1" as="geometry">
            <mxPoint x="159.8" y="240" as="sourcePoint" />
            <mxPoint x="159.8" y="280" as="targetPoint" />
          </mxGeometry>
        </mxCell>
        <mxCell id="5EitfYJ-op9geUsSmFYW-16" value="Menerima Informasi" style="rounded=1;whiteSpace=wrap;html=1;" vertex="1" parent="1">
          <mxGeometry x="330" y="290" width="140" height="30" as="geometry" />
        </mxCell>
        <mxCell id="5EitfYJ-op9geUsSmFYW-17" value="Verifikasi peminjaman" style="rounded=1;whiteSpace=wrap;html=1;" vertex="1" parent="1">
          <mxGeometry x="330" y="364" width="140" height="30" as="geometry" />
        </mxCell>
        <mxCell id="5EitfYJ-op9geUsSmFYW-18" value="Mencatat peminjaman" style="rounded=1;whiteSpace=wrap;html=1;" vertex="1" parent="1">
          <mxGeometry x="330" y="440" width="140" height="30" as="geometry" />
        </mxCell>
        <mxCell id="5EitfYJ-op9geUsSmFYW-20" value="" style="endArrow=classic;html=1;rounded=0;exitX=1;exitY=0.5;exitDx=0;exitDy=0;entryX=0;entryY=0.5;entryDx=0;entryDy=0;" edge="1" parent="1" source="5EitfYJ-op9geUsSmFYW-12" target="5EitfYJ-op9geUsSmFYW-16">
          <mxGeometry width="50" height="50" relative="1" as="geometry">
            <mxPoint x="310" y="390" as="sourcePoint" />
            <mxPoint x="360" y="340" as="targetPoint" />
          </mxGeometry>
        </mxCell>
        <mxCell id="5EitfYJ-op9geUsSmFYW-21" value="Melakukan Pengembalian" style="rounded=1;whiteSpace=wrap;html=1;" vertex="1" parent="1">
          <mxGeometry x="90" y="530" width="140" height="40" as="geometry" />
        </mxCell>
        <mxCell id="5EitfYJ-op9geUsSmFYW-23" value="" style="endArrow=classic;html=1;rounded=0;exitX=0.5;exitY=1;exitDx=0;exitDy=0;entryX=0.5;entryY=0;entryDx=0;entryDy=0;" edge="1" parent="1" source="5EitfYJ-op9geUsSmFYW-16" target="5EitfYJ-op9geUsSmFYW-17">
          <mxGeometry width="50" height="50" relative="1" as="geometry">
            <mxPoint x="310" y="390" as="sourcePoint" />
            <mxPoint x="360" y="340" as="targetPoint" />
          </mxGeometry>
        </mxCell>
        <mxCell id="5EitfYJ-op9geUsSmFYW-24" value="" style="endArrow=classic;html=1;rounded=0;exitX=0.5;exitY=1;exitDx=0;exitDy=0;entryX=0.5;entryY=0;entryDx=0;entryDy=0;" edge="1" parent="1" target="5EitfYJ-op9geUsSmFYW-18">
          <mxGeometry width="50" height="50" relative="1" as="geometry">
            <mxPoint x="399.83" y="394" as="sourcePoint" />
            <mxPoint x="399.83" y="438" as="targetPoint" />
          </mxGeometry>
        </mxCell>
        <mxCell id="5EitfYJ-op9geUsSmFYW-25" value="" style="rounded=0;whiteSpace=wrap;html=1;" vertex="1" parent="1">
          <mxGeometry x="520" y="80" width="240" height="840" as="geometry" />
        </mxCell>
        <mxCell id="5EitfYJ-op9geUsSmFYW-26" value="PETUGAS PERPUSTAKAAN" style="rounded=0;whiteSpace=wrap;html=1;" vertex="1" parent="1">
          <mxGeometry x="520" y="80" width="240" height="40" as="geometry" />
        </mxCell>
        <mxCell id="5EitfYJ-op9geUsSmFYW-27" value="Mengeluarkan buku" style="rounded=1;whiteSpace=wrap;html=1;" vertex="1" parent="1">
          <mxGeometry x="570" y="440" width="140" height="30" as="geometry" />
        </mxCell>
        <mxCell id="5EitfYJ-op9geUsSmFYW-28" value="" style="endArrow=classic;html=1;rounded=0;exitX=1;exitY=0.5;exitDx=0;exitDy=0;" edge="1" parent="1" source="5EitfYJ-op9geUsSmFYW-18" target="5EitfYJ-op9geUsSmFYW-27">
          <mxGeometry width="50" height="50" relative="1" as="geometry">
            <mxPoint x="470" y="460" as="sourcePoint" />
            <mxPoint x="510" y="470" as="targetPoint" />
          </mxGeometry>
        </mxCell>
        <mxCell id="5EitfYJ-op9geUsSmFYW-29" value="" style="endArrow=classic;html=1;rounded=0;entryX=1;entryY=0.5;entryDx=0;entryDy=0;exitX=0.5;exitY=1;exitDx=0;exitDy=0;" edge="1" parent="1" source="5EitfYJ-op9geUsSmFYW-27" target="5EitfYJ-op9geUsSmFYW-21">
          <mxGeometry width="50" height="50" relative="1" as="geometry">
            <mxPoint x="400" y="570" as="sourcePoint" />
            <mxPoint x="450" y="520" as="targetPoint" />
            <Array as="points">
              <mxPoint x="640" y="550" />
            </Array>
          </mxGeometry>
        </mxCell>
        <mxCell id="5EitfYJ-op9geUsSmFYW-30" value="Verifikasi pengembalian" style="rounded=1;whiteSpace=wrap;html=1;" vertex="1" parent="1">
          <mxGeometry x="330" y="600" width="140" height="30" as="geometry" />
        </mxCell>
        <mxCell id="5EitfYJ-op9geUsSmFYW-31" value="Perbarui status" style="rounded=1;whiteSpace=wrap;html=1;" vertex="1" parent="1">
          <mxGeometry x="330" y="670" width="140" height="30" as="geometry" />
        </mxCell>
        <mxCell id="5EitfYJ-op9geUsSmFYW-32" value="" style="endArrow=classic;html=1;rounded=0;entryX=0;entryY=0.5;entryDx=0;entryDy=0;exitX=0.5;exitY=1;exitDx=0;exitDy=0;" edge="1" parent="1" source="5EitfYJ-op9geUsSmFYW-21" target="5EitfYJ-op9geUsSmFYW-30">
          <mxGeometry width="50" height="50" relative="1" as="geometry">
            <mxPoint x="230" y="620" as="sourcePoint" />
            <mxPoint x="280" y="570" as="targetPoint" />
            <Array as="points">
              <mxPoint x="160" y="615" />
            </Array>
          </mxGeometry>
        </mxCell>
        <mxCell id="5EitfYJ-op9geUsSmFYW-34" value="" style="endArrow=classic;html=1;rounded=0;exitX=0.5;exitY=1;exitDx=0;exitDy=0;" edge="1" parent="1">
          <mxGeometry width="50" height="50" relative="1" as="geometry">
            <mxPoint x="639.71" y="700" as="sourcePoint" />
            <mxPoint x="640.03" y="760" as="targetPoint" />
          </mxGeometry>
        </mxCell>
        <mxCell id="5EitfYJ-op9geUsSmFYW-35" value="Menerima buku" style="rounded=1;whiteSpace=wrap;html=1;" vertex="1" parent="1">
          <mxGeometry x="570" y="670" width="140" height="30" as="geometry" />
        </mxCell>
        <mxCell id="5EitfYJ-op9geUsSmFYW-36" value="" style="endArrow=classic;html=1;rounded=0;entryX=0.5;entryY=0;entryDx=0;entryDy=0;exitX=0.5;exitY=1;exitDx=0;exitDy=0;" edge="1" parent="1" source="5EitfYJ-op9geUsSmFYW-30" target="5EitfYJ-op9geUsSmFYW-31">
          <mxGeometry width="50" height="50" relative="1" as="geometry">
            <mxPoint x="420" y="580" as="sourcePoint" />
            <mxPoint x="470" y="530" as="targetPoint" />
          </mxGeometry>
        </mxCell>
        <mxCell id="5EitfYJ-op9geUsSmFYW-38" value="" style="endArrow=classic;html=1;rounded=0;exitX=1;exitY=0.5;exitDx=0;exitDy=0;" edge="1" parent="1" source="5EitfYJ-op9geUsSmFYW-31" target="5EitfYJ-op9geUsSmFYW-35">
          <mxGeometry width="50" height="50" relative="1" as="geometry">
            <mxPoint x="500" y="760" as="sourcePoint" />
            <mxPoint x="550" y="710" as="targetPoint" />
          </mxGeometry>
        </mxCell>
        <mxCell id="5EitfYJ-op9geUsSmFYW-39" value="" style="ellipse;whiteSpace=wrap;html=1;aspect=fixed;fillColor=#000000;" vertex="1" parent="1">
          <mxGeometry x="600" y="760" width="80" height="80" as="geometry" />
        </mxCell>
      </root>
    </mxGraphModel>
  </diagram>
</mxfile>
